<svg xmlns="http://www.w3.org/2000/svg" id="Layer_1" x="0" y="0" version="1.1" viewBox="0 0 576 325" xml:space="preserve">
  <defs/>
  <style>
    .st0{fill:#316094}
  </style>
  <path d="M117.97 260.03c5.97 0 10.71 4.74 10.71 10.63v29.68c0 5.88-4.74 10.63-10.71 10.63H87.41c-5.88 0-10.63-4.74-10.63-10.63v-29.68c0-5.88 4.74-10.63 10.63-10.63h30.56zm-30.56 7.2c-1.84 0-3.43 1.58-3.43 3.43v29.68c0 1.84 1.58 3.42 3.43 3.42h30.56c1.93 0 3.43-1.58 3.43-3.42v-29.68c0-1.84-1.49-3.43-3.43-3.43H87.41zM180.4 260.03v7.2h-28.63c-1.84 0-3.43 1.58-3.43 3.43v40.3h-7.2v-40.3c0-5.88 4.74-10.63 10.63-10.63h28.63zM244.43 270.65v29.68c0 5.88-4.74 10.63-10.63 10.63h-41.27v-67.61h7.2v16.68h34.07c5.89 0 10.63 4.74 10.63 10.62zm-7.2 0c0-1.84-1.58-3.43-3.43-3.43h-30.56c-1.93 0-3.51 1.58-3.51 3.43v29.68c0 1.84 1.58 3.42 3.51 3.42h30.56c1.84 0 3.43-1.58 3.43-3.42v-29.68zM265.07 243.34v7.2h-7.2v-7.2h7.2zm-7.2 16.69h7.2v50.93h-7.2v-50.93zM285.26 267.23v33.1c0 1.84 1.58 3.42 3.43 3.42h18.62v7.2h-18.62c-5.97 0-10.63-4.74-10.63-10.63v-56.99h7.2v16.68h22.04v7.2h-22.04zM357.62 260.03v7.2h-28.63c-1.84 0-3.43 1.58-3.43 3.43v40.3h-7.2v-40.3c0-5.88 4.74-10.63 10.63-10.63h28.63zM410.86 260.03c5.97 0 10.71 4.74 10.71 10.63v29.68c0 5.88-4.74 10.63-10.71 10.63H380.3c-5.88 0-10.63-4.74-10.63-10.63v-29.68c0-5.88 4.74-10.63 10.63-10.63h30.56zm-30.56 7.2c-1.84 0-3.43 1.58-3.43 3.43v29.68c0 1.84 1.58 3.42 3.43 3.42h30.56c1.93 0 3.43-1.58 3.43-3.42v-29.68c0-1.84-1.49-3.43-3.43-3.43H380.3zM485.67 270.65v40.3h-7.2v-40.3c0-1.84-1.58-3.43-3.43-3.43h-30.56c-1.93 0-3.51 1.58-3.51 3.43v40.3h-7.2v-50.93h41.27c5.89.01 10.63 4.75 10.63 10.63z" class="st0"/>
  <g>
    <path d="M280.92 46.57c-38.01 0-68.82 30.81-68.82 68.82 0 38.01 30.81 68.82 68.82 68.82s68.82-30.81 68.82-68.82c0-38.01-30.81-68.82-68.82-68.82zm5.21 117.2l-5.21 12.38-5.21-12.38c-22.71-2.42-40.76-20.46-43.17-43.17l-12.38-5.21 12.38-5.21c2.42-22.71 20.46-40.76 43.17-43.17l5.21-12.38 5.21 12.38c22.71 2.42 40.76 20.46 43.17 43.17l12.38 5.21-12.38 5.21c-2.42 22.71-20.46 40.75-43.17 43.17z" class="st0"/>
    <path fill="#fd4a5c" d="M289.96 124.43c10.65-10.65 16.51-34.59 16.51-34.59s-23.94 5.86-34.59 16.51c-10.65 10.65-16.51 34.59-16.51 34.59s23.94-5.87 34.59-16.51zm-4.14-4.15c-2.7 2.7-7.09 2.7-9.8 0-2.7-2.7-2.7-7.09 0-9.8 2.7-2.7 7.09-2.7 9.8 0 2.7 2.71 2.7 7.1 0 9.8z"/>
  </g>
</svg>
